<svg width="71" height="64" viewBox="0 0 71 64" fill="none" xmlns="http://www.w3.org/2000/svg">
<path fill-rule="evenodd" clip-rule="evenodd" d="M53.25 42V28.6667C53.25 20.48 48.4279 13.6267 39.9375 11.8133V10C39.9375 7.78667 37.9554 6 35.5 6C33.0446 6 31.0625 7.78667 31.0625 10V11.8133C22.6017 13.6267 17.75 20.4533 17.75 28.6667V42L11.8333 47.3333V50H59.1667V47.3333L53.25 42ZM35.5 58C38.7542 58 41.4167 55.6 41.4167 52.6667H29.5833C29.5833 55.6 32.2458 58 35.5 58ZM23.6667 44.6667H47.3333V28.6667C47.3333 22.0533 42.8663 16.6667 35.5 16.6667C28.1338 16.6667 23.6667 22.0533 23.6667 28.6667V44.6667Z" fill="#181A1F"/>
</svg>
